<svg width="24" height="24" viewBox="0 0 24 24" fill="none" xmlns="http://www.w3.org/2000/svg">
<path d="M10.75 18.692C11.294 18.692 11.7537 18.5043 12.129 18.129C12.5043 17.753 12.692 17.2933 12.692 16.75V12.77H15.423V11.23H11.923V15.317C11.7657 15.1457 11.589 15.018 11.393 14.934C11.1977 14.85 10.9833 14.808 10.75 14.808C10.2067 14.808 9.747 14.9957 9.371 15.371C8.99567 15.747 8.808 16.2067 8.808 16.75C8.808 17.2933 8.99567 17.753 9.371 18.129C9.747 18.5043 10.2067 18.692 10.75 18.692ZM6.616 21C6.15533 21 5.771 20.846 5.463 20.538C5.155 20.23 5.00067 19.8457 5 19.385V4.615C5 4.155 5.15433 3.771 5.463 3.463C5.77167 3.155 6.156 3.00067 6.616 3H14.5L19 7.5V19.385C19 19.845 18.846 20.2293 18.538 20.538C18.23 20.8467 17.8453 21.0007 17.384 21H6.616ZM14 8V4H6.616C6.462 4 6.32067 4.064 6.192 4.192C6.06333 4.32 5.99933 4.461 6 4.615V19.385C6 19.5383 6.064 19.6793 6.192 19.808C6.32 19.9367 6.461 20.0007 6.615 20H17.385C17.5383 20 17.6793 19.936 17.808 19.808C17.9367 19.68 18.0007 19.5387 18 19.384V8H14Z" fill="#008080"/>
<path fill-rule="evenodd" clip-rule="evenodd" d="M5.463 20.538C5.771 20.846 6.15533 21 6.616 21H17.384C17.8453 21.0007 18.23 20.8467 18.538 20.538C18.846 20.2293 19 19.845 19 19.385V7.5L14.5 3H6.616C6.156 3.00067 5.77167 3.155 5.463 3.463C5.15433 3.771 5 4.155 5 4.615V19.385C5.00067 19.8457 5.155 20.23 5.463 20.538ZM14 4V8H18V19.384C18.0007 19.5387 17.9367 19.68 17.808 19.808C17.6793 19.936 17.5383 20 17.385 20H6.615C6.461 20.0007 6.32 19.9367 6.192 19.808C6.064 19.6793 6 19.5383 6 19.385V4.615C5.99933 4.461 6.06333 4.32 6.192 4.192C6.32067 4.064 6.462 4 6.616 4H14Z" fill="#63B0B0"/>
</svg>
