<svg width="24" height="24" viewBox="0 0 24 24" fill="none" xmlns="http://www.w3.org/2000/svg">
<circle cx="12" cy="12" r="12" fill="white"/>
<path d="M5.09091 18.9997H7.63636V12.3044L4 9.35059V17.8182C4 18.471 4.48818 18.9997 5.09091 18.9997Z" fill="#4285F4"/>
<path d="M16.3636 18.9997H18.9091C19.5118 18.9997 20 18.471 20 17.8182V9.35059L16.3636 12.3044V18.9997Z" fill="#34A853"/>
<path d="M16.3636 7.18471V12.3047L20 9.35085V7.77548C20 6.3153 18.4609 5.48134 17.3818 6.35764L16.3636 7.18471Z" fill="#FBBC04"/>
<path fill-rule="evenodd" clip-rule="evenodd" d="M7.63637 12.3048V7.18481L12 10.7294L16.3636 7.18481V12.3048L12 15.8494L7.63637 12.3048Z" fill="#EA4335"/>
<path d="M4 7.77548V9.35085L7.63636 12.3047V7.18471L6.61818 6.35764C5.53909 5.48134 4 6.3153 4 7.77548Z" fill="#C5221F"/>
</svg>
