<svg width="50" height="50" viewBox="0 0 50 50" fill="none" xmlns="http://www.w3.org/2000/svg">
<g clip-path="url(#clip0_364_297)">
<path d="M42.2771 37.2479C41.0979 36.0687 39.5271 35.4167 37.8563 35.4167H32.1125L33.7646 33.7646C34.5792 32.95 34.5792 31.6333 33.7646 30.8187L29.7771 26.8312C28.5979 25.6521 27.0271 25 25.3563 25H19.6125L21.2646 23.3479C22.0792 22.5333 22.0792 21.2167 21.2646 20.4021L17.2771 16.4146C16.0979 15.2354 14.5271 14.5833 12.8563 14.5833H6.25C2.80417 14.5833 0 17.3875 0 20.8333V22.9167C0 24.5229 0.627084 25.975 1.625 27.0833C0.625 28.1917 0 29.6437 0 31.25V33.3333C0 34.9396 0.627084 36.3917 1.625 37.5C0.625 38.6083 0 40.0604 0 41.6667V43.75C0 47.1958 2.80417 50 6.25 50H37.8563C39.525 50 41.0959 49.35 42.2771 48.1687L46.2646 44.1813C47.0792 43.3667 47.0792 42.05 46.2646 41.2354L42.2771 37.2479ZM26.8313 29.7771L29.3458 32.2917L26.8313 34.8063C26.4375 35.1979 25.9146 35.4167 25.3563 35.4167H6.25C5.10209 35.4167 4.16667 34.4833 4.16667 33.3333V31.25C4.16667 30.1 5.10209 29.1667 6.25 29.1667H25.3563C25.9125 29.1667 26.4375 29.3833 26.8313 29.7771ZM4.16667 20.8333C4.16667 19.6833 5.10209 18.75 6.25 18.75H12.8563C13.4125 18.75 13.9375 18.9667 14.3313 19.3604L16.8458 21.875L14.3313 24.3896C13.9375 24.7812 13.4146 25 12.8563 25H6.25C5.10209 25 4.16667 24.0667 4.16667 22.9167V20.8333ZM39.3313 45.2229C38.9375 45.6146 38.4146 45.8333 37.8563 45.8333H6.25C5.10209 45.8333 4.16667 44.9 4.16667 43.75V41.6667C4.16667 40.5167 5.10209 39.5833 6.25 39.5833H37.8563C38.4125 39.5833 38.9375 39.8 39.3313 40.1937L41.8459 42.7083L39.3313 45.2229ZM48.6042 15.9042L47.4604 15.2437C47.7292 14.3708 47.9167 13.4604 47.9167 12.5C47.9167 11.5396 47.7292 10.6312 47.4604 9.75625L48.6042 9.09583C49.6 8.52083 49.9417 7.24583 49.3667 6.25C48.7896 5.25417 47.5167 4.91042 46.5209 5.4875L45.3875 6.14167C44.1292 4.7875 42.4875 3.80417 40.625 3.37708V2.08333C40.625 0.93125 39.6917 0 38.5417 0C37.3917 0 36.4584 0.93125 36.4584 2.08333V3.37708C34.5959 3.80208 32.9542 4.7875 31.6959 6.14167L30.5625 5.4875C29.5625 4.9125 28.2917 5.25625 27.7167 6.25C27.1417 7.24792 27.4833 8.52083 28.4792 9.09583L29.6229 9.75625C29.3542 10.6292 29.1667 11.5396 29.1667 12.5C29.1667 13.4604 29.3542 14.3687 29.6229 15.2437L28.4792 15.9042C27.4833 16.4792 27.1417 17.7542 27.7167 18.75C28.1042 19.4167 28.8021 19.7917 29.5229 19.7917C29.875 19.7917 30.2334 19.7021 30.5625 19.5125L31.6959 18.8583C32.9542 20.2125 34.5959 21.1958 36.4584 21.6229V22.9167C36.4584 24.0687 37.3917 25 38.5417 25C39.6917 25 40.625 24.0687 40.625 22.9167V21.6229C42.4875 21.1979 44.1292 20.2125 45.3875 18.8583L46.5209 19.5125C46.85 19.7021 47.2084 19.7917 47.5604 19.7917C48.2813 19.7917 48.9813 19.4167 49.3667 18.75C49.9417 17.7521 49.6 16.4792 48.6042 15.9042ZM38.5417 17.7083C35.6709 17.7083 33.3334 15.3729 33.3334 12.5C33.3334 9.62708 35.6709 7.29167 38.5417 7.29167C41.4125 7.29167 43.75 9.62708 43.75 12.5C43.75 15.3729 41.4125 17.7083 38.5417 17.7083Z" fill="#63B0B0"/>
</g>
<defs>
<clipPath id="clip0_364_297">
<rect width="50" height="50" fill="white"/>
</clipPath>
</defs>
</svg>
