<svg width="50" height="50" viewBox="0 0 50 50" fill="none" xmlns="http://www.w3.org/2000/svg">
<g clip-path="url(#clip0_364_299)">
<path d="M39.5833 0H10.4167C7.65501 0.00330804 5.00741 1.10184 3.05462 3.05462C1.10184 5.00741 0.00330804 7.65501 0 10.4167L0 39.5833C0.00330804 42.345 1.10184 44.9926 3.05462 46.9454C5.00741 48.8982 7.65501 49.9967 10.4167 50H39.5833C42.345 49.9967 44.9926 48.8982 46.9454 46.9454C48.8982 44.9926 49.9967 42.345 50 39.5833V10.4167C49.9967 7.65501 48.8982 5.00741 46.9454 3.05462C44.9926 1.10184 42.345 0.00330804 39.5833 0ZM10.4167 4.16667H39.5833C41.2409 4.16667 42.8306 4.82515 44.0028 5.99725C45.1749 7.16935 45.8333 8.75906 45.8333 10.4167V39.5833C45.8297 40.5114 45.6161 41.4267 45.2083 42.2604L26.1187 23.1708C25.1514 22.2033 24.003 21.4357 22.739 20.9121C21.475 20.3884 20.1203 20.1189 18.7521 20.1189C17.3839 20.1189 16.0292 20.3884 14.7652 20.9121C13.5012 21.4357 12.3527 22.2033 11.3854 23.1708L4.16667 30.3875V10.4167C4.16667 8.75906 4.82515 7.16935 5.99725 5.99725C7.16935 4.82515 8.75906 4.16667 10.4167 4.16667ZM10.4167 45.8333C8.75906 45.8333 7.16935 45.1749 5.99725 44.0028C4.82515 42.8306 4.16667 41.2409 4.16667 39.5833V36.2792L14.3292 26.1167C14.9096 25.5359 15.5988 25.0751 16.3573 24.7608C17.1158 24.4465 17.9289 24.2847 18.75 24.2847C19.5711 24.2847 20.3842 24.4465 21.1427 24.7608C21.9012 25.0751 22.5904 25.5359 23.1708 26.1167L42.2604 45.2083C41.4267 45.6161 40.5114 45.8297 39.5833 45.8333H10.4167Z" fill="#63B0B0"/>
<path d="M33.3332 21.8751C34.7753 21.8751 36.1851 21.4474 37.3842 20.6462C38.5833 19.845 39.5179 18.7062 40.0698 17.3738C40.6217 16.0414 40.7661 14.5753 40.4847 13.1609C40.2034 11.7464 39.5089 10.4472 38.4892 9.42743C37.4694 8.40767 36.1701 7.71321 34.7557 7.43186C33.3413 7.15051 31.8752 7.29491 30.5428 7.8468C29.2104 8.39869 28.0716 9.33328 27.2704 10.5324C26.4692 11.7315 26.0415 13.1413 26.0415 14.5834C26.0415 16.5173 26.8097 18.372 28.1772 19.7394C29.5446 21.1069 31.3993 21.8751 33.3332 21.8751ZM33.3332 11.4584C33.9512 11.4584 34.5554 11.6417 35.0693 11.9851C35.5832 12.3285 35.9838 12.8165 36.2203 13.3875C36.4568 13.9586 36.5187 14.5869 36.3981 15.1931C36.2775 15.7993 35.9799 16.3561 35.5429 16.7931C35.1058 17.2302 34.549 17.5278 33.9428 17.6484C33.3366 17.769 32.7083 17.7071 32.1373 17.4705C31.5663 17.234 31.0782 16.8335 30.7348 16.3196C30.3914 15.8057 30.2082 15.2015 30.2082 14.5834C30.2082 13.7546 30.5374 12.9598 31.1235 12.3737C31.7095 11.7877 32.5044 11.4584 33.3332 11.4584Z" fill="#63B0B0"/>
</g>
<defs>
<clipPath id="clip0_364_299">
<rect width="50" height="50" fill="white"/>
</clipPath>
</defs>
</svg>
