<svg width="50" height="50" viewBox="0 0 50 50" fill="none" xmlns="http://www.w3.org/2000/svg">
<g clip-path="url(#clip0_364_302)">
<path d="M31.2498 24.9998C31.2498 25.5523 31.0303 26.0822 30.6396 26.4729C30.2489 26.8636 29.719 27.0831 29.1665 27.0831H27.0832V36.4581C27.0832 37.4882 26.7777 38.4952 26.2054 39.3517C25.6331 40.2082 24.8197 40.8758 23.868 41.27C22.9163 41.6642 21.8691 41.7674 20.8587 41.5664C19.8484 41.3654 18.9204 40.8694 18.192 40.141C17.4636 39.4126 16.9675 38.4846 16.7666 37.4742C16.5656 36.4639 16.6688 35.4167 17.063 34.465C17.4572 33.5133 18.1247 32.6999 18.9812 32.1276C19.8377 31.5553 20.8447 31.2498 21.8748 31.2498C22.2246 31.2505 22.5735 31.2854 22.9165 31.354V27.0831C22.9165 25.9781 23.3555 24.9183 24.1369 24.1369C24.9183 23.3555 25.9781 22.9165 27.0832 22.9165H29.1665C29.719 22.9165 30.2489 23.136 30.6396 23.5267C31.0303 23.9174 31.2498 24.4473 31.2498 24.9998ZM45.8332 21.8436V39.5831C45.8299 42.3448 44.7313 44.9924 42.7785 46.9452C40.8258 48.898 38.1782 49.9965 35.4165 49.9998H14.5832C11.8215 49.9965 9.17392 48.898 7.22113 46.9452C5.26834 44.9924 4.16981 42.3448 4.1665 39.5831V10.4165C4.16981 7.65482 5.26834 5.00722 7.22113 3.05443C9.17392 1.10164 11.8215 0.0031133 14.5832 -0.000194741H23.9894C25.9055 -0.00519787 27.8035 0.369878 29.5737 1.10332C31.3438 1.83677 32.9509 2.91402 34.3019 4.27272L41.5603 11.5311C42.919 12.8821 43.9962 14.4892 44.7297 16.2593C45.4631 18.0295 45.8382 19.9275 45.8332 21.8436ZM31.3561 7.21855C30.7009 6.58235 29.9647 6.03528 29.1665 5.59147V14.5831C29.1665 15.1357 29.386 15.6656 29.7767 16.0563C30.1674 16.447 30.6973 16.6665 31.2498 16.6665H40.2415C39.7977 15.8683 39.2506 15.1321 38.6144 14.4769L31.3561 7.21855ZM41.6665 21.8436C41.6665 21.4998 41.5998 21.1706 41.5686 20.8331H31.2498C29.5922 20.8331 28.0025 20.1747 26.8304 19.0026C25.6583 17.8305 24.9998 16.2407 24.9998 14.5831V4.26439C24.6623 4.23314 24.3332 4.16647 23.9894 4.16647H14.5832C12.9256 4.16647 11.3359 4.82495 10.1638 5.99705C8.99165 7.16916 8.33317 8.75887 8.33317 10.4165V39.5831C8.33317 41.2407 8.99165 42.8305 10.1638 44.0026C11.3359 45.1747 12.9256 45.8331 14.5832 45.8331H35.4165C37.0741 45.8331 38.6638 45.1747 39.8359 44.0026C41.008 42.8305 41.6665 41.2407 41.6665 39.5831V21.8436Z" fill="#63B0B0"/>
</g>
<defs>
<clipPath id="clip0_364_302">
<rect width="50" height="50" fill="white"/>
</clipPath>
</defs>
</svg>
