<svg width="50" height="50" viewBox="0 0 50 50" fill="none" xmlns="http://www.w3.org/2000/svg">
<g clip-path="url(#clip0_364_291)">
<path d="M49.5542 40.6082L34.8188 3.82489C33.5188 0.639473 29.8688 -0.902193 26.6708 0.397807L24.7438 1.18531C24.225 1.39781 23.7604 1.69364 23.3271 2.02281C22.1854 0.785307 20.5646 -0.00219333 18.7521 -0.00219333H6.25C2.80417 -0.000109993 0 2.80406 0 6.24989V43.7499C0 47.1957 2.80417 49.9999 6.25 49.9999H18.75C22.1958 49.9999 25 47.1957 25 43.7499V18.5311L36.05 46.1186C37.3521 49.3332 41.0854 50.827 44.1938 49.5374L46.1229 48.7499C49.2583 47.5541 50.8854 43.677 49.5542 40.6082ZM28.2792 15.5124L34.0667 13.1541L42.7563 34.8457L36.9688 37.2041L28.2792 15.5124ZM26.3167 5.04364L28.2438 4.25614C29.2771 3.82697 30.5292 4.32072 30.9563 5.38739L32.5188 9.28531L26.7333 11.6436L25.1771 7.75614C24.7438 6.69364 25.2563 5.47489 26.3208 5.04156L26.3167 5.04364ZM4.16667 14.5832H10.4167V35.4166H4.16667V14.5832ZM14.5833 14.5832H20.8333V35.4166H14.5833V14.5832ZM20.8333 6.24989V10.4166H14.5833V4.16656H18.75C19.8979 4.16656 20.8333 5.09989 20.8333 6.24989ZM6.25 4.16656H10.4167V10.4166H4.16667V6.24989C4.16667 5.09989 5.10209 4.16656 6.25 4.16656ZM4.16667 43.7499V39.5832H10.4167V45.8332H6.25C5.10209 45.8332 4.16667 44.8999 4.16667 43.7499ZM18.75 45.8332H14.5833V39.5832H20.8333V43.7499C20.8333 44.8999 19.8979 45.8332 18.75 45.8332ZM45.6854 43.7686C45.4688 44.2832 45.0667 44.6811 44.5521 44.8916L42.6229 45.6791C41.5583 46.1082 40.3417 45.602 39.9146 44.5541L38.5208 41.0728L44.3083 38.7145L45.6938 42.1749C45.9063 42.6895 45.9042 43.2582 45.6875 43.7707L45.6854 43.7686Z" fill="#63B0B0"/>
</g>
<defs>
<clipPath id="clip0_364_291">
<rect width="50" height="50" fill="white"/>
</clipPath>
</defs>
</svg>
