<svg width="50" height="50" viewBox="0 0 50 50" fill="none" xmlns="http://www.w3.org/2000/svg">
<path d="M45.2409 10.6313V7.06149C45.2409 6.4752 44.8532 6 44.375 6H5.86589C5.38771 6 5 6.4752 5 7.06149V8.92558C5 9.53134 5.23083 10.0922 5.60487 10.4882C6.03872 10.9475 6.31946 11.6797 6.31946 12.5046C6.31946 13.3296 6.03872 14.0617 5.60487 14.521C5.23091 14.917 5 15.4779 5 16.0836V16.2017C5 16.5569 5.07136 16.9076 5.21362 17.2171C5.34912 17.5119 5.42811 17.8631 5.42811 18.241C5.42811 18.6189 5.34912 18.9701 5.21362 19.2649C5.07136 19.5744 5 19.9251 5 20.2804V37.8414C5 38.4277 5.38771 38.9029 5.86589 38.9029H29.5204C29.8379 38.9029 30.1426 38.7171 30.3143 38.3897C30.5576 37.9258 30.9474 37.6249 31.3875 37.6249C31.8276 37.6249 32.2174 37.9258 32.4606 38.3897C32.6323 38.7171 32.937 38.9029 33.2545 38.9029H44.3751C44.8533 38.9029 45.2409 38.4276 45.2409 37.8414V27.3585C45.2409 26.9803 45.119 26.6137 44.8932 26.3559C44.3685 25.7571 44.0329 24.8406 44.0329 23.8132C44.0329 22.786 44.3685 21.8695 44.8932 21.2707C45.119 21.0129 45.2409 20.6464 45.2409 20.2681V15.6373C45.2409 15.2535 45.1168 14.8798 44.8836 14.6236C44.5695 14.2785 44.3671 13.7403 44.3671 13.1343C44.3671 12.5282 44.5694 11.99 44.8836 11.6449C45.1168 11.3888 45.2409 11.0151 45.2409 10.6313Z" fill="#63B0B0"/>
<path d="M44.8836 11.645C45.1168 11.3888 45.2409 11.0151 45.2409 10.6313V7.06149C45.2409 6.4752 44.8532 6 44.375 6H42.2997V7.02575C42.2997 7.4096 42.1756 7.78325 41.9424 8.03945C41.6283 8.38457 41.4259 8.92279 41.4259 9.52883C41.4259 10.1349 41.6282 10.6731 41.9424 11.0182C42.1756 11.2744 42.2997 11.6481 42.2997 12.0319V16.6627C42.2997 17.0409 42.1778 17.4075 41.952 17.6652C41.4273 18.264 41.0917 19.1805 41.0917 20.2078C41.0917 21.2351 41.4273 22.1516 41.952 22.7504C42.1778 23.0081 42.2997 23.3747 42.2997 23.7529V34.2358C42.2997 34.8221 41.9121 35.2973 41.4339 35.2973H30.3133C29.9959 35.2973 29.6912 35.1116 29.5194 34.7842C29.2762 34.3202 28.8863 34.0193 28.4463 34.0193C28.0062 34.0193 27.6164 34.3202 27.3731 34.7842C27.2015 35.1116 26.8968 35.2973 26.5792 35.2973H5V37.8414C5 38.4277 5.38763 38.9029 5.86589 38.9029H29.5204C29.8379 38.9029 30.1426 38.7171 30.3143 38.3897C30.5577 37.9258 30.9474 37.6249 31.3875 37.6249C31.8275 37.6249 32.2174 37.9258 32.4606 38.3897C32.6323 38.7171 32.937 38.9029 33.2545 38.9029H44.3751C44.8533 38.9029 45.2409 38.4277 45.2409 37.8414V27.3585C45.2409 26.9803 45.1191 26.6137 44.8932 26.3559C44.3685 25.7571 44.0329 24.8406 44.0329 23.8133C44.0329 22.7861 44.3685 21.8696 44.8932 21.2708C45.119 21.013 45.2409 20.6465 45.2409 20.2682V15.6374C45.2409 15.2536 45.1168 14.8799 44.8836 14.6237C44.5694 14.2786 44.367 13.7404 44.367 13.1344C44.367 12.5283 44.5694 11.9901 44.8836 11.645Z" fill="#63B0B0"/>
<path d="M35.7536 37.6946L35.7408 37.7041C34.8837 38.3364 34.3596 39.4731 34.3596 40.6993V43.7021C34.3596 43.8667 34.4689 44 34.6033 43.9991L35.9765 43.9903C36.1099 43.9894 36.2175 43.8566 36.2175 43.6932V40.6885C36.2175 40.2689 36.4001 39.8745 36.6953 39.6582L36.7081 39.6487C37.5751 39.0135 38.0915 37.895 38.0893 36.6568C38.0872 35.4125 37.5617 34.2918 36.6846 33.6629C36.3906 33.4521 36.2175 33.0569 36.2175 32.6394V31.9092H34.3597V32.6403C34.3597 33.8772 34.9077 34.9966 35.7674 35.6442C36.1848 35.9586 36.2311 36.4592 36.2314 36.6618C36.2318 36.8668 36.1861 37.3778 35.7536 37.6946Z" fill="#63B0B0"/>
<path d="M36.6846 33.6629C36.3907 33.4521 36.2175 33.0569 36.2175 32.6394V31.9092H35.3559V32.6394C35.3559 33.0569 35.529 33.4521 35.823 33.6629C36.7001 34.2918 37.2256 35.4125 37.2277 36.6568C37.2299 37.895 36.7136 39.0136 35.8466 39.6487L35.8338 39.6582C35.5385 39.8745 35.356 40.2688 35.356 40.6885V43.7075C35.356 43.8631 35.2534 43.9895 35.1265 43.9903L34.5468 43.994C34.5613 43.9974 34.5762 43.9994 34.5916 43.9993L35.9766 43.9904C36.1099 43.9895 36.2176 43.8567 36.2176 43.6933V40.6886C36.2176 40.269 36.4002 39.8746 36.6954 39.6583L36.7082 39.6488C37.5752 39.0136 38.0916 37.8951 38.0894 36.6569C38.0872 35.4125 37.5618 34.2918 36.6846 33.6629Z" fill="#63B0B0"/>
<path d="M39.7684 11.8691H35.3649C35.1893 11.8691 35.0253 11.9763 34.9273 12.1548L34.2884 13.3195C34.2243 13.4365 34.0838 13.4365 34.0197 13.3195L33.3808 12.1548C33.2829 11.9763 33.1188 11.8691 32.9433 11.8691H27.8685C26.7474 11.8691 25.7631 12.5848 25.2012 13.6632C24.6393 12.5848 23.6552 11.8691 22.5339 11.8691H10.6341C10.4629 11.8691 10.324 12.0394 10.324 12.2493V32.5256C10.324 32.7355 10.4629 32.9058 10.6341 32.9058H13.5014C13.7118 32.9058 13.9083 32.7774 14.0257 32.5635L14.9028 30.9646C14.9668 30.8479 15.1069 30.8479 15.1709 30.9646L16.0479 32.5635C16.1653 32.7774 16.3618 32.9058 16.5722 32.9058H39.7685C39.9398 32.9058 40.0786 32.7355 40.0786 32.5256V12.2494C40.0786 12.0394 39.9398 11.8691 39.7684 11.8691Z" fill="#C6E0E0"/>
<path d="M25.2013 13.6632C24.6394 12.5848 23.6553 11.8691 22.534 11.8691H10.6341C10.4629 11.8691 10.324 12.0394 10.324 12.2493V32.5256C10.324 32.7355 10.4629 32.9058 10.6341 32.9058H13.5014C13.7118 32.9058 13.9083 32.7774 14.0257 32.5635L14.9028 30.9646C14.9668 30.8479 15.1069 30.8479 15.1709 30.9646L16.0479 32.5635C16.1653 32.7774 16.3618 32.9058 16.5722 32.9058H25.2013V13.6632Z" fill="#C6E0E0"/>
<path d="M39.7684 11.8691H38.7323V29.8891C38.7323 30.7094 38.1898 31.3744 37.5206 31.3744H15.3956L16.048 32.5635C16.1653 32.7774 16.3619 32.9058 16.5723 32.9058H39.7685C39.9397 32.9058 40.0786 32.7355 40.0786 32.5256V12.2494C40.0785 12.0394 39.9397 11.8691 39.7684 11.8691Z" fill="#63B0B0"/>
<path d="M10.324 31.3766V32.5278C10.324 32.7377 10.4629 32.908 10.6341 32.908H13.5014C13.7118 32.908 13.9083 32.7796 14.0257 32.5656L14.6781 31.3765L10.324 31.3766Z" fill="#63B0B0"/>
<path d="M10.324 31.3766V32.5278C10.324 32.7377 10.4629 32.908 10.6341 32.908H13.5014C13.7118 32.908 13.9083 32.7796 14.0257 32.5656L14.6781 31.3765L10.324 31.3766Z" fill="#63B0B0"/>
<path d="M23.8549 12.231V29.8956C23.8549 30.716 23.3125 31.381 22.6433 31.381H15.3956L16.048 32.5701C16.1653 32.7841 16.3619 32.9125 16.5723 32.9125H25.2014V13.6697C24.8758 13.0451 24.4082 12.5436 23.8549 12.231Z" fill="#63B0B0"/>
<path d="M20.5155 21.1711C21.0405 20.6134 21.3736 19.791 21.3736 18.8744C21.3736 17.1985 20.2614 15.835 18.8943 15.835H16.6811C16.1902 15.835 15.7909 15.3454 15.7909 14.7436C15.7909 14.3335 15.5196 14.001 15.185 14.001C14.8505 14.001 14.5792 14.3335 14.5792 14.7436C14.5792 16.1644 15.5221 17.3204 16.6812 17.3204H18.8944C19.5934 17.3204 20.1621 18.0175 20.1621 18.8745C20.1621 19.7314 19.5935 20.4285 18.8944 20.4285H17.9854C17.6508 20.4285 17.3796 20.761 17.3796 21.1712C17.3796 21.5813 17.6508 21.9138 17.9854 21.9138H18.8944C19.5934 21.9138 20.1621 22.6109 20.1621 23.4679C20.1621 24.3248 19.5935 25.0219 18.8944 25.0219H16.3833V19.5831C16.3833 19.173 16.1121 18.8405 15.7775 18.8405C15.4429 18.8405 15.1717 19.173 15.1717 19.5831V25.5825C14.8083 25.983 14.5793 26.5632 14.5793 27.208V27.7603C14.5793 28.1704 14.8505 28.503 15.1851 28.503C15.5197 28.503 15.7909 28.1704 15.7909 27.7603V27.208C15.7909 26.8215 16.0474 26.5072 16.3626 26.5072H18.8944C20.2615 26.5072 21.3737 25.1437 21.3737 23.4678C21.3736 22.5513 21.0405 21.7288 20.5155 21.1711Z" fill="#008080"/>
<path d="M32.6328 18.3628H28.594C28.2593 18.3628 27.9882 18.0303 27.9882 17.6201C27.9882 17.2099 28.2594 16.8774 28.594 16.8774H32.6328C32.9675 16.8774 33.2386 17.2099 33.2386 17.6201C33.2386 18.0303 32.9674 18.3628 32.6328 18.3628Z" fill="#008080"/>
<path d="M32.6328 26.6377H28.594C28.2593 26.6377 27.9882 26.3052 27.9882 25.895C27.9882 25.4848 28.2594 25.1523 28.594 25.1523H32.6328C32.9675 25.1523 33.2386 25.4848 33.2386 25.895C33.2386 26.3052 32.9674 26.6377 32.6328 26.6377Z" fill="#008080"/>
<path d="M35.6485 18.3628H34.6792C34.3445 18.3628 34.0734 18.0303 34.0734 17.6201C34.0734 17.2099 34.3446 16.8774 34.6792 16.8774H35.6485C35.9832 16.8774 36.2543 17.2099 36.2543 17.6201C36.2543 18.0303 35.9832 18.3628 35.6485 18.3628Z" fill="#008080"/>
<path d="M34.0395 21.1567H32.68C32.3454 21.1567 32.0742 20.8242 32.0742 20.4141C32.0742 20.0039 32.3455 19.6714 32.68 19.6714H34.0395C34.3742 19.6714 34.6453 20.0039 34.6453 20.4141C34.6453 20.8242 34.3742 21.1567 34.0395 21.1567Z" fill="#008080"/>
<path d="M30.6134 21.1567H28.621C28.2863 21.1567 28.0151 20.8242 28.0151 20.4141C28.0151 20.0039 28.2864 19.6714 28.621 19.6714H30.6134C30.9481 19.6714 31.2192 20.0039 31.2192 20.4141C31.2192 20.8242 30.948 21.1567 30.6134 21.1567Z" fill="#008080"/>
<path d="M30.6134 23.897H28.621C28.2863 23.897 28.0151 23.5645 28.0151 23.1543C28.0151 22.7441 28.2864 22.4116 28.621 22.4116H30.6134C30.9481 22.4116 31.2192 22.7441 31.2192 23.1543C31.2192 23.5644 30.948 23.897 30.6134 23.897Z" fill="#008080"/>
<path d="M37.4795 23.897H32.6328C32.2981 23.897 32.027 23.5645 32.027 23.1543C32.027 22.7441 32.2982 22.4116 32.6328 22.4116H37.4795C37.8141 22.4116 38.0853 22.7441 38.0853 23.1543C38.0853 23.5644 37.8141 23.897 37.4795 23.897Z" fill="#008080"/>
<path d="M37.4795 21.1567H36.0863C35.7516 21.1567 35.4805 20.8242 35.4805 20.4141C35.4805 20.0039 35.7517 19.6714 36.0863 19.6714H37.4795C37.8142 19.6714 38.0854 20.0039 38.0854 20.4141C38.0854 20.8242 37.8142 21.1567 37.4795 21.1567Z" fill="#008080"/>
</svg>
