<svg width="50" height="50" viewBox="0 0 50 50" fill="none" xmlns="http://www.w3.org/2000/svg">
<g clip-path="url(#clip0_364_293)">
<path d="M35.4165 0H14.5832C8.83317 0 4.1665 4.66667 4.1665 10.4167V41.6667C4.1665 46.2708 7.89567 50 12.4998 50H35.4165C41.1665 50 45.8332 45.3333 45.8332 39.5833V10.4167C45.8332 4.66667 41.1665 0 35.4165 0ZM41.6665 10.4167V33.3333H16.6665V4.16667H35.4165C38.854 4.16667 41.6665 6.97917 41.6665 10.4167ZM12.4998 4.54167V33.3333C10.979 33.3333 9.56234 33.7708 8.33317 34.5V10.4167C8.33317 7.70833 10.0832 5.41667 12.4998 4.54167ZM35.4165 45.8333H12.4998C10.2082 45.8333 8.33317 43.9583 8.33317 41.6667C8.33317 39.375 10.2082 37.5 12.4998 37.5H41.6665V39.5833C41.6665 43.0208 38.854 45.8333 35.4165 45.8333ZM22.479 29.1667C23.354 29.1667 24.1457 28.6042 24.4373 27.7917L25.4373 25H32.9165L33.9165 27.7917C34.2082 28.625 34.9998 29.1667 35.8748 29.1667C37.3123 29.1667 38.3123 27.75 37.8332 26.375L32.1248 10.3542C31.6665 9.10417 30.5207 8.29167 29.1873 8.29167C27.854 8.29167 26.7082 9.10417 26.2498 10.375L20.5415 26.3958C20.0623 27.75 21.0623 29.1875 22.4998 29.1875L22.479 29.1667ZM31.4373 20.8333H26.9373L29.1873 14.5208L31.4373 20.8333Z" fill="#63B0B0"/>
</g>
<defs>
<clipPath id="clip0_364_293">
<rect width="50" height="50" fill="white"/>
</clipPath>
</defs>
</svg>
