<svg width="50" height="50" viewBox="0 0 50 50" fill="none" xmlns="http://www.w3.org/2000/svg">
<g clip-path="url(#clip0_364_295)">
<path d="M47.0312 21.1499C45.2271 20.4041 43.1688 20.8103 41.7875 22.1916L40.875 23.1041C39.9729 20.9291 38.3542 19.1249 36.3146 17.9832C38.325 16.0832 39.5812 13.3936 39.5812 10.4145C39.5812 4.67072 34.9083 -0.00219727 29.1646 -0.00219727C25.7604 -0.00219727 22.7333 1.63947 20.8312 4.17072C18.9292 1.63739 15.9021 -0.00219727 12.4979 -0.00219727C6.75625 -0.000113932 2.08333 4.6728 2.08333 10.4166C2.08333 13.3936 3.33958 16.0853 5.35 17.9853C2.16042 19.7686 0 23.1791 0 27.0832V39.5832C0 45.327 4.67292 49.9999 10.4167 49.9999H31.25C35.5854 49.9999 39.3104 47.3374 40.8771 43.5624L41.7896 44.4749C42.7125 45.3978 43.9375 45.8874 45.1854 45.8874C45.8062 45.8874 46.4333 45.7666 47.0312 45.5186C48.8354 44.7728 50 43.027 50 41.0749V25.5978C50 23.6436 48.8333 21.8999 47.0312 21.1541V21.1499ZM29.1667 4.16655C32.6125 4.16655 35.4167 6.97072 35.4167 10.4166C35.4167 13.8624 32.6125 16.6666 29.1667 16.6666C25.7208 16.6666 22.9167 13.8624 22.9167 10.4166C22.9167 6.97072 25.7208 4.16655 29.1667 4.16655ZM12.5 4.16655C15.9458 4.16655 18.75 6.97072 18.75 10.4166C18.75 13.8624 15.9458 16.6666 12.5 16.6666C9.05417 16.6666 6.25 13.8624 6.25 10.4166C6.25 6.97072 9.05417 4.16655 12.5 4.16655ZM37.5 39.5832C37.5 43.0291 34.6958 45.8332 31.25 45.8332H10.4167C6.97083 45.8332 4.16667 43.0291 4.16667 39.5832V27.0832C4.16667 23.6374 6.97083 20.8332 10.4167 20.8332H31.25C34.6958 20.8332 37.5 23.6374 37.5 27.0832V39.5832ZM45.8333 41.0707C45.8333 41.427 45.6167 41.5916 45.4354 41.6666C45.2562 41.7416 44.9875 41.7791 44.7333 41.527L41.6667 38.4603V28.2061L44.7333 25.1395C44.9875 24.8874 45.2562 24.9249 45.4354 24.9999C45.6167 25.0749 45.8333 25.2395 45.8333 25.5957V41.0707Z" fill="#63B0B0"/>
</g>
<defs>
<clipPath id="clip0_364_295">
<rect width="50" height="50" fill="white"/>
</clipPath>
</defs>
</svg>
