<svg width="24" height="24" viewBox="0 0 24 24" fill="none" xmlns="http://www.w3.org/2000/svg">
<circle cx="12" cy="12" r="12" fill="white"/>
<path fill-rule="evenodd" clip-rule="evenodd" d="M12 4C9.82733 4 9.5549 4.00921 8.70161 4.04814C7.8501 4.08698 7.26855 4.22223 6.7597 4.42001C6.23363 4.62442 5.78748 4.89797 5.34271 5.34271C4.89797 5.78748 4.62442 6.23363 4.42001 6.7597C4.22223 7.26855 4.08698 7.8501 4.04814 8.70161C4.00921 9.5549 4 9.82733 4 12C4 14.1727 4.00921 14.4451 4.04814 15.2984C4.08698 16.1499 4.22223 16.7314 4.42001 17.2403C4.62442 17.7664 4.89797 18.2125 5.34271 18.6573C5.78748 19.102 6.23363 19.3756 6.7597 19.58C7.26855 19.7778 7.8501 19.913 8.70161 19.9519C9.5549 19.9908 9.82733 20 12 20C14.1727 20 14.4451 19.9908 15.2984 19.9519C16.1499 19.913 16.7314 19.7778 17.2403 19.58C17.7664 19.3756 18.2125 19.102 18.6573 18.6573C19.102 18.2125 19.3756 17.7664 19.58 17.2403C19.7778 16.7314 19.913 16.1499 19.9519 15.2984C19.9908 14.4451 20 14.1727 20 12C20 9.82733 19.9908 9.5549 19.9519 8.70161C19.913 7.8501 19.7778 7.26855 19.58 6.7597C19.3756 6.23363 19.102 5.78748 18.6573 5.34271C18.2125 4.89797 17.7664 4.62442 17.2403 4.42001C16.7314 4.22223 16.1499 4.08698 15.2984 4.04814C14.4451 4.00921 14.1727 4 12 4ZM12 5.44141C14.1361 5.44141 14.3891 5.44957 15.2327 5.48806C16.0126 5.52362 16.4362 5.65395 16.7181 5.76351C17.0916 5.90863 17.3581 6.08199 17.638 6.36195C17.9179 6.64188 18.0913 6.90838 18.2364 7.2818C18.346 7.56369 18.4763 7.98729 18.5119 8.76728C18.5504 9.61085 18.5585 9.86388 18.5585 12C18.5585 14.1361 18.5504 14.3891 18.5119 15.2327C18.4763 16.0126 18.346 16.4362 18.2364 16.7181C18.0913 17.0916 17.9179 17.3581 17.638 17.638C17.3581 17.9179 17.0916 18.0913 16.7181 18.2364C16.4362 18.346 16.0126 18.4763 15.2327 18.5119C14.3892 18.5504 14.1362 18.5585 12 18.5585C9.86372 18.5585 9.61075 18.5504 8.76728 18.5119C7.98729 18.4763 7.56369 18.346 7.2818 18.2364C6.90838 18.0913 6.64188 17.9179 6.36195 17.638C6.08202 17.3581 5.90863 17.0916 5.76351 16.7181C5.65395 16.4362 5.52362 16.0126 5.48806 15.2327C5.44957 14.3891 5.44141 14.1361 5.44141 12C5.44141 9.86388 5.44957 9.61085 5.48806 8.76728C5.52362 7.98729 5.65395 7.56369 5.76351 7.2818C5.90863 6.90838 6.08199 6.64188 6.36195 6.36195C6.64188 6.08199 6.90838 5.90863 7.2818 5.76351C7.56369 5.65395 7.98729 5.52362 8.76728 5.48806C9.61085 5.44957 9.86388 5.44141 12 5.44141Z" fill="url(#paint0_linear_306_567)"/>
<path fill-rule="evenodd" clip-rule="evenodd" d="M11.9999 14.6666C10.5272 14.6666 9.33325 13.4727 9.33325 11.9999C9.33325 10.5272 10.5272 9.33325 11.9999 9.33325C13.4727 9.33325 14.6666 10.5272 14.6666 11.9999C14.6666 13.4727 13.4727 14.6666 11.9999 14.6666ZM12 7.89185C9.73109 7.89185 7.89185 9.73109 7.89185 12C7.89185 14.2688 9.73109 16.1081 12 16.1081C14.2688 16.1081 16.1081 14.2688 16.1081 12C16.1081 9.73109 14.2688 7.89185 12 7.89185Z" fill="url(#paint1_linear_306_567)"/>
<path fill-rule="evenodd" clip-rule="evenodd" d="M17.2304 7.72955C17.2304 8.25975 16.8006 8.68953 16.2704 8.68953C15.7402 8.68953 15.3104 8.25975 15.3104 7.72955C15.3104 7.19935 15.7402 6.76953 16.2704 6.76953C16.8006 6.76953 17.2304 7.19935 17.2304 7.72955Z" fill="url(#paint2_linear_306_567)"/>
<defs>
<linearGradient id="paint0_linear_306_567" x1="12" y1="4" x2="12" y2="20" gradientUnits="userSpaceOnUse">
<stop stop-color="#D6015C"/>
<stop offset="1" stop-color="#FA8E1A"/>
</linearGradient>
<linearGradient id="paint1_linear_306_567" x1="12" y1="7.89185" x2="12" y2="16.1081" gradientUnits="userSpaceOnUse">
<stop stop-color="#D6015C"/>
<stop offset="1" stop-color="#FA8E1A"/>
</linearGradient>
<linearGradient id="paint2_linear_306_567" x1="16.2704" y1="6.76953" x2="16.2704" y2="8.68953" gradientUnits="userSpaceOnUse">
<stop stop-color="#D6015C"/>
<stop offset="1" stop-color="#FA8E1A"/>
</linearGradient>
</defs>
</svg>
