<svg width="50" height="50" viewBox="0 0 50 50" fill="none" xmlns="http://www.w3.org/2000/svg">
<path d="M28.625 12.3333C30.3509 12.3333 31.75 10.9156 31.75 9.16667C31.75 7.41776 30.3509 6 28.625 6C26.8991 6 25.5 7.41776 25.5 9.16667C25.5 10.9156 26.8991 12.3333 28.625 12.3333Z" fill="#63B0B0"/>
<path d="M28.625 19.775L34.6016 13.7188C34.0156 13.3625 33.3125 13.125 32.5312 13.125H22.0625L28.625 19.775Z" fill="#63B0B0"/>
<path d="M20.9297 13.125H20.0312C16.1641 13.125 13 16.3313 13 20.25C13 21.0021 13.625 21.6354 14.3672 21.6354C15.1094 21.6354 15.7344 21.0021 15.7344 20.25C15.7344 17.8354 17.6484 15.8958 20.0312 15.8958H23.6641L20.9297 13.125Z" fill="#63B0B0"/>
<path d="M20.0312 16.6875C18.0781 16.6875 16.5156 18.2708 16.5156 20.25C16.5156 21.7542 16.75 23.0604 17.6484 23.7729C18.4688 24.4062 19.1719 24.6042 20.0312 24.6042C20.8906 24.6042 21.5937 24.4062 22.4141 23.7729C23.3125 23.1 23.5469 21.7937 23.5469 20.25C23.5469 18.2708 21.9844 16.6875 20.0312 16.6875ZM20.0312 22.8229C17.4141 22.8229 17.4141 21.0021 17.4141 20.5271C17.4141 20.0521 18.5859 20.0521 20.0312 20.0521C21.4766 20.0521 22.6484 20.0521 22.6484 20.5271C22.6484 21.0021 22.6484 22.8229 20.0312 22.8229Z" fill="#008080"/>
<path d="M33.7031 25.7915V26.7811C33.7031 27.5332 34.3281 28.1665 35.0703 28.1665C35.8125 28.1665 36.4375 27.5332 36.4375 26.7811V25.7915H33.7031Z" fill="#63B0B0"/>
<path d="M35.0703 19.4188V17.8355H36.4375V17.0834C36.4375 15.9751 35.9688 14.9459 35.2266 14.2334L28.9375 20.5667C28.9375 20.5667 28.8203 20.7251 28.625 20.7251C28.4297 20.7251 28.3125 20.5667 28.3125 20.5667L24.3281 16.5688V27.7709V42.0209C24.3281 43.1292 25.1875 44.0001 26.2812 44.0001C27.375 44.0001 28.2344 43.1292 28.2344 42.0209V28.1667C28.2344 27.9292 28.3906 27.7709 28.625 27.7709C28.8594 27.7709 29.0156 27.9292 29.0156 28.1667V42.0209C29.0156 43.1292 29.875 44.0001 30.9688 44.0001C32.0625 44.0001 32.9219 43.1292 32.9219 42.0209V27.7709V17.8751C32.9219 17.6376 33.0781 17.4792 33.3125 17.4792C33.5469 17.4792 33.7031 17.6376 33.7031 17.8751V25.0001H36.4375V19.4188H35.0703Z" fill="#63B0B0"/>
</svg>
