<svg width="20" height="20" viewBox="0 0 20 20" fill="none" xmlns="http://www.w3.org/2000/svg">
<path d="M1.9 9.29556C1.9 9.88205 2.40695 10.3469 3.02548 10.3841V11.4608C3.02548 11.7053 3.18814 11.9158 3.42578 12.004C3.50478 12.0334 3.58727 12.0476 3.66889 12.0476C3.83271 12.0476 3.99522 11.9902 4.11895 11.8793L4.11896 11.8793L5.7845 10.3865H7.88891C8.07797 10.3865 8.25041 10.2468 8.25041 10.0521C8.25041 9.85748 8.07804 9.71773 7.88891 9.71773H5.63795C5.54541 9.71773 5.4547 9.75057 5.38628 9.81194L3.74849 11.2798V10.0521C3.74849 9.85745 3.57605 9.71776 3.38699 9.71776H3.10561C2.82899 9.71776 2.62301 9.51826 2.62301 9.2956V2.99092C2.62301 2.76826 2.82902 2.56876 3.10561 2.56876H10.1399C10.4165 2.56876 10.6225 2.76825 10.6225 2.99092V7.27806C10.6225 7.47275 10.7949 7.61244 10.984 7.61244C11.173 7.61244 11.3455 7.47275 11.3455 7.27806V2.99092C11.3455 2.37929 10.7942 1.9 10.1399 1.9H3.10561C2.45134 1.9 1.9 2.37929 1.9 2.99092V9.29556Z" fill="black" stroke="black" stroke-width="0.2"/>
<path d="M16.2513 17.3325V17.4668M16.2513 17.3325L16.3513 17.4221V16.1048C16.3513 15.9754 16.4684 15.8704 16.6128 15.8704H16.8942C17.1773 15.8704 17.4139 15.6885 17.4661 15.4483H17.3767V15.3532M16.2513 17.3325V16.1048C16.2513 15.9101 16.4237 15.7704 16.6128 15.7704H16.8942C17.1687 15.7704 17.3737 15.5739 17.3767 15.3532M16.2513 17.3325L14.6135 15.8646C14.5451 15.8032 14.4544 15.7704 14.3618 15.7704H9.85988C9.58326 15.7704 9.37728 15.5709 9.37728 15.3482V9.04366C9.37728 8.82097 9.58329 8.62149 9.85988 8.62149H16.8941C17.1708 8.62149 17.3767 8.82099 17.3767 9.04366V15.3483V15.3532M16.2513 17.4668L17.4767 15.3483H17.3768C17.3768 15.3499 17.3768 15.3516 17.3767 15.3532M16.2513 17.4668L14.5467 15.9391M16.5739 18.0567L16.5392 17.963L16.574 18.0567C16.8116 17.9685 16.9743 17.7579 16.9743 17.5134V16.4368C17.5928 16.3995 18.0997 15.9347 18.0997 15.3482V9.04366C18.0998 8.43199 17.5484 7.95273 16.8941 7.95273H9.85988C9.20557 7.95273 8.65427 8.43203 8.65427 9.04366V15.3483C8.65427 15.9599 9.20561 16.4392 9.85988 16.4392H14.2152L15.8808 17.932C16.0045 18.0429 16.167 18.1003 16.3309 18.1003C16.4125 18.1003 16.495 18.086 16.5739 18.0567ZM16.3513 17.5135C16.3513 17.5191 16.3513 17.5254 16.339 17.5299C16.3268 17.5345 16.3218 17.53 16.3174 17.526L16.3033 17.5135L16.2612 17.4757C16.2614 17.4753 16.2616 17.475 16.2617 17.4746C16.2754 17.4493 16.2959 17.4393 16.3039 17.4363C16.3039 17.4363 16.3039 17.4363 16.3039 17.4363C16.3041 17.4362 16.3042 17.4361 16.3044 17.4361C16.3127 17.4331 16.33 17.429 16.3513 17.4346V17.4882V17.4885V17.5135Z" fill="black" stroke="black" stroke-width="0.2"/>
<path d="M6.96889 3.97747C6.96799 3.97532 6.96705 3.97316 6.96607 3.97103C6.90875 3.84622 6.77451 3.76562 6.62395 3.76562C6.62385 3.76562 6.62371 3.76562 6.62357 3.76562C6.47287 3.76575 6.33863 3.84663 6.28155 3.97166C6.28075 3.97341 6.27999 3.97519 6.27922 3.97697L4.48314 8.20374C4.43174 8.32471 4.49945 8.46011 4.63443 8.50618C4.66504 8.51665 4.69652 8.52158 4.72745 8.52158C4.83282 8.52158 4.93216 8.46408 4.97187 8.37055L5.35506 7.46882H7.87997L8.04699 7.86551C8.098 7.98661 8.2488 8.04776 8.38398 8.00204C8.51909 7.95636 8.58733 7.8211 8.53632 7.70001L6.96889 3.97747ZM5.55426 7.00009L6.62332 4.48436L7.68259 7.00009H5.55426Z" fill="black"/>
<path d="M14.6216 14.0606C14.344 14.2551 14.0105 14.3579 13.6572 14.3579C12.7929 14.3579 12.0897 13.7277 12.0897 12.9531C12.0897 12.1785 12.7929 11.5483 13.6572 11.5483H14.3606C14.505 11.5483 14.6221 11.4433 14.6221 11.3139C14.6221 11.1844 14.505 11.0795 14.3606 11.0795C14.3606 11.0795 13.5285 11.0795 13.5165 11.0795C13.1952 11.0795 12.9339 10.8452 12.9339 10.5573C12.9339 10.2694 13.1952 10.0352 13.5165 10.0352C13.682 10.0352 13.8403 10.0986 13.9508 10.2093C14.0471 10.3057 14.2125 10.3139 14.3201 10.2275C14.4277 10.1412 14.4368 9.99304 14.3405 9.8966C14.1309 9.68675 13.8305 9.56641 13.5165 9.56641C12.9069 9.56641 12.4109 10.0109 12.4109 10.5573C12.4109 10.8354 12.5395 11.087 12.7461 11.2671C12.0487 11.5711 11.5668 12.2126 11.5668 12.9531C11.5668 13.9862 12.5045 14.8267 13.6572 14.8267C14.1284 14.8267 14.5733 14.6895 14.9438 14.4299C15.0575 14.3502 15.0777 14.2029 14.9887 14.1009C14.8998 13.9989 14.7354 13.9809 14.6216 14.0606Z" fill="black"/>
</svg>
