<svg width="25" height="25" viewBox="0 0 25 25" fill="none" xmlns="http://www.w3.org/2000/svg">
<circle cx="12.684" cy="12.0519" r="12.0519" fill="white"/>
<path d="M19.2112 17.5759H16.7158V13.6612C16.7158 12.7277 16.6992 11.526 15.418 11.526C14.1183 11.526 13.9195 12.5431 13.9195 13.5932V17.5756H11.4242V9.52549H13.8197V10.6256H13.8532C14.341 9.7902 15.2512 9.28938 16.2168 9.3253C18.7459 9.3253 19.2122 10.9917 19.2122 13.1597L19.2112 17.5759Z" fill="#0A66C2"/>
<path d="M8.60854 8.42508C8.60838 8.42508 8.60831 8.42508 8.60823 8.42508C7.81384 8.42508 7.16016 7.77033 7.16016 6.97454C7.16016 6.17876 7.81384 5.52393 8.60823 5.52393C9.40255 5.52393 10.0562 6.1786 10.0563 6.97424C10.0563 6.97432 10.0563 6.97439 10.0563 6.97454C10.0563 7.77018 9.40278 8.42501 8.60854 8.42508Z" fill="#0A66C2"/>
<path d="M9.85624 17.5758H7.35834V9.52539H9.85624V17.5758Z" fill="#0A66C2"/>
</svg>
