<svg width="16" height="20" viewBox="0 0 16 20" fill="none" xmlns="http://www.w3.org/2000/svg">
<path fill-rule="evenodd" clip-rule="evenodd" d="M7.56215 19.3144C7.95734 19.3144 15.0186 11.7698 15.0186 7.65175C15.0186 3.53367 11.6802 0.195312 7.56215 0.195312C3.44407 0.195312 0.105713 3.53367 0.105713 7.65175C0.105713 11.7698 7.16697 19.3144 7.56215 19.3144ZM7.56216 11.3812C9.65003 11.3812 11.3426 9.68863 11.3426 7.60076C11.3426 5.51289 9.65003 3.82034 7.56216 3.82034C5.4743 3.82034 3.78175 5.51289 3.78175 7.60076C3.78175 9.68863 5.4743 11.3812 7.56216 11.3812Z" fill="#1DAEEF"/>
<path fill-rule="evenodd" clip-rule="evenodd" d="M0.105713 7.65175C0.105713 11.7698 7.16697 19.3144 7.56215 19.3144V11.3812C5.47429 11.3811 3.78175 9.68862 3.78175 7.60076C3.78175 5.5129 5.47429 3.82035 7.56215 3.82034V0.195312C3.44407 0.195312 0.105713 3.53367 0.105713 7.65175Z" fill="#3EC3FF"/>
</svg>
