<svg width="24" height="24" viewBox="0 0 24 24" fill="none" xmlns="http://www.w3.org/2000/svg">
<path d="M8 4V14.184C7.67977 14.0655 7.34145 14.0032 7 14C6.40666 14 5.82664 14.1759 5.33329 14.5056C4.83994 14.8352 4.45543 15.3038 4.22836 15.8519C4.0013 16.4001 3.94189 17.0033 4.05765 17.5853C4.1734 18.1672 4.45912 18.7018 4.87868 19.1213C5.29824 19.5409 5.83279 19.8266 6.41473 19.9424C6.99667 20.0581 7.59987 19.9987 8.14805 19.7716C8.69623 19.5446 9.16477 19.1601 9.49441 18.6667C9.82405 18.1734 10 17.5933 10 17V7H17V11.184C16.6798 11.0655 16.3414 11.0032 16 11C15.4067 11 14.8266 11.1759 14.3333 11.5056C13.8399 11.8352 13.4554 12.3038 13.2284 12.8519C13.0013 13.4001 12.9419 14.0033 13.0576 14.5853C13.1734 15.1672 13.4591 15.7018 13.8787 16.1213C14.2982 16.5409 14.8328 16.8266 15.4147 16.9424C15.9967 17.0581 16.5999 16.9987 17.1481 16.7716C17.6962 16.5446 18.1648 16.1601 18.4944 15.6667C18.8241 15.1734 19 14.5933 19 14V4H8Z" fill="white"/>
</svg>
