<svg width="50" height="50" viewBox="0 0 50 50" fill="none" xmlns="http://www.w3.org/2000/svg">
<path d="M10.8164 37.261L10.0001 38.4243V40.5089H39.6881V38.4243L38.8718 37.261L24.8442 35.71L10.8164 37.261Z" fill="#63B0B0"/>
<path d="M39.6881 34.01L24.8442 32.459L10.0001 34.01V36.0947L10.8164 37.258H38.8718L39.6881 36.0947V34.01Z" fill="#008080"/>
<path d="M39.688 6H26.9809L25.3482 20.0062L26.9809 34.0123H39.688V6Z" fill="#63B0B0"/>
<path d="M14.2738 6L12.6411 20.0062L14.2738 34.0123H26.9809V6H14.2738Z" fill="#7FBEBE"/>
<path d="M14.2734 6H10V34.0122H14.2734V6Z" fill="#63B0B0"/>
<path d="M39.6881 38.4222H10.0001V36.0957H15.953L18.5309 36.8712L21.1088 36.0957H39.6881V38.4222Z" fill="#63B0B0" fill-opacity="0.6"/>
<path d="M18.5307 36.0957L16.8981 40.0471L18.5307 43.0464L21.1086 43.9986V36.0957H18.5307Z" fill="#63B0B0"/>
<path d="M15.9529 36.0957V43.9986L18.5308 43.0464V36.0957H15.9529Z" fill="#63B0B0"/>
<path d="M32.7848 11.5908H26.9809L26.1646 12.754L26.9809 13.9174H32.7848V11.5908Z" fill="#008080"/>
<path d="M32.7848 17.9769V15.6504H26.9809L26.1646 16.8137L26.9809 17.9769H32.7848Z" fill="#008080"/>
<path d="M26.9812 11.5908H21.1771V13.9174H26.9812V11.5908Z" fill="#008080"/>
<path d="M26.9812 15.6504H21.1771V17.9769H26.9812V15.6504Z" fill="#008080"/>
</svg>
