<svg width="24" height="24" viewBox="0 0 24 24" fill="none" xmlns="http://www.w3.org/2000/svg">
<circle cx="12" cy="12" r="12" fill="white"/>
<path d="M12.3024 5.01167C13.0563 5 13.8045 5.00583 14.5527 5C14.5987 5.89249 14.9152 6.80248 15.5598 7.43247C16.2044 8.07996 17.1137 8.37746 18 8.47662V10.8274C17.1713 10.7983 16.3368 10.6233 15.5828 10.2616C15.2548 10.1099 14.9498 9.91744 14.6505 9.71911C14.6447 11.4224 14.6563 13.1257 14.639 14.8232C14.593 15.6399 14.3282 16.4507 13.862 17.1215C13.1081 18.2415 11.8017 18.9707 10.4608 18.994C9.63777 19.0407 8.81479 18.8132 8.11266 18.3932C6.95012 17.699 6.13289 16.4274 6.01203 15.0624C6.00052 14.7707 5.99476 14.479 6.00627 14.1932C6.10987 13.0849 6.65085 12.0232 7.4911 11.2999C8.44646 10.4599 9.78165 10.0574 11.0305 10.2966C11.042 11.1599 11.0075 12.0232 11.0075 12.8866C10.4377 12.6999 9.77014 12.7524 9.26944 13.1024C8.90687 13.3416 8.63062 13.7091 8.48674 14.1232C8.36588 14.4207 8.40042 14.7474 8.40617 15.0624C8.54429 16.019 9.45361 16.824 10.4205 16.7365C11.065 16.7307 11.6808 16.3515 12.0146 15.7974C12.124 15.6049 12.2449 15.4065 12.2506 15.179C12.3082 14.1349 12.2851 13.0966 12.2909 12.0524C12.2966 9.70161 12.2851 7.35664 12.3024 5.01167Z" fill="black"/>
</svg>
