<svg width="25" height="25" viewBox="0 0 25 25" fill="none" xmlns="http://www.w3.org/2000/svg">
<circle cx="12.316" cy="12.0519" r="12.0519" fill="white"/>
<path d="M18.7056 8.77425C18.7154 8.9159 18.7154 9.05756 18.7154 9.20051C18.7154 13.5565 15.399 18.5802 9.33493 18.5802V18.5776C7.54358 18.5802 5.78944 18.0671 4.28142 17.0997C4.54189 17.131 4.80368 17.1467 5.06611 17.1474C6.55063 17.1487 7.99272 16.6506 9.16062 15.7335C7.74987 15.7067 6.51277 14.7869 6.0806 13.4442C6.57479 13.5395 7.08399 13.5199 7.56904 13.3874C6.03099 13.0767 4.92445 11.7254 4.92445 10.1562C4.92445 10.1418 4.92445 10.1281 4.92445 10.1144C5.38273 10.3696 5.89585 10.5113 6.42072 10.5269C4.97211 9.55888 4.52557 7.6319 5.40036 6.1253C7.0742 8.1848 9.54383 9.43682 12.195 9.56933C11.9293 8.42437 12.2922 7.22457 13.1487 6.4197C14.4766 5.1716 16.565 5.23557 17.8132 6.56266C18.5515 6.41709 19.2592 6.14619 19.9068 5.76236C19.6606 6.52545 19.1456 7.17365 18.4575 7.58555C19.111 7.50853 19.7494 7.33358 20.3507 7.0666C19.9081 7.72982 19.3506 8.30752 18.7056 8.77425Z" fill="#1D9BF0"/>
</svg>
