<svg width="50" height="50" viewBox="0 0 50 50" fill="none" xmlns="http://www.w3.org/2000/svg">
<path d="M42.3478 44H7.65217C7.21399 44 6.79375 43.8259 6.48391 43.5161C6.17407 43.2062 6 42.786 6 42.3478V7.65217C6 7.21399 6.17407 6.79375 6.48391 6.48391C6.79375 6.17407 7.21399 6 7.65217 6H42.3478C42.786 6 43.2062 6.17407 43.5161 6.48391C43.8259 6.79375 44 7.21399 44 7.65217V42.3478C44 42.786 43.8259 43.2062 43.5161 43.5161C43.2062 43.8259 42.786 44 42.3478 44Z" fill="#63B0B0"/>
<path d="M7.65223 7.65332H42.3479V34.0881H7.65223V7.65332ZM39.8696 39.8707H28.3044C28.0853 39.8707 27.8752 39.7837 27.7203 39.6288C27.5653 39.4738 27.4783 39.2637 27.4783 39.0446C27.4783 38.8255 27.5653 38.6154 27.7203 38.4605C27.8752 38.3056 28.0853 38.2185 28.3044 38.2185H39.8696C40.0887 38.2185 40.2988 38.3056 40.4538 38.4605C40.6087 38.6154 40.6957 38.8255 40.6957 39.0446C40.6957 39.2637 40.6087 39.4738 40.4538 39.6288C40.2988 39.7837 40.0887 39.8707 39.8696 39.8707Z" fill="#C6E0E0"/>
<path d="M30.7827 39.8675H10.1305C9.91145 39.8675 9.70134 39.7805 9.54641 39.6256C9.39149 39.4706 9.30446 39.2605 9.30446 39.0414C9.30446 38.8223 9.39149 38.6122 9.54641 38.4573C9.70134 38.3024 9.91145 38.2153 10.1305 38.2153H30.7827C31.0018 38.2153 31.2119 38.3024 31.3669 38.4573C31.5218 38.6122 31.6088 38.8223 31.6088 39.0414C31.6088 39.2605 31.5218 39.4706 31.3669 39.6256C31.2119 39.7805 31.0018 39.8675 30.7827 39.8675Z" fill="#63B0B0"/>
<path d="M29.9565 42.345C28.135 42.345 26.6522 40.8622 26.6522 39.0406C26.6522 37.2191 28.135 35.7363 29.9565 35.7363C31.778 35.7363 33.2608 37.2191 33.2608 39.0406C33.2608 40.8622 31.778 42.345 29.9565 42.345ZM21.6956 26.6493C21.5871 26.6497 21.4795 26.6285 21.3791 26.5871C21.2787 26.5457 21.1875 26.4849 21.1108 26.4081C21.034 26.3313 20.9732 26.2401 20.9318 26.1398C20.8904 26.0394 20.8692 25.9318 20.8695 25.8232V15.9102C20.8695 15.7606 20.9101 15.6139 20.9869 15.4856C21.0638 15.3573 21.174 15.2522 21.3059 15.1817C21.4378 15.1111 21.5863 15.0777 21.7357 15.085C21.8851 15.0922 22.0297 15.1399 22.1541 15.2229L29.5889 20.1794C29.702 20.2549 29.7948 20.3571 29.859 20.477C29.9231 20.5969 29.9567 20.7307 29.9567 20.8667C29.9567 21.0027 29.9231 21.1366 29.859 21.2565C29.7948 21.3764 29.702 21.4786 29.5889 21.554L22.1541 26.5105C22.0183 26.6011 21.8588 26.6494 21.6956 26.6493Z" fill="#008080"/>
</svg>
