<svg width="25" height="25" viewBox="0 0 25 25" fill="none" xmlns="http://www.w3.org/2000/svg">
<circle cx="12.9481" cy="12.0519" r="12.0519" fill="white"/>
<path fill-rule="evenodd" clip-rule="evenodd" d="M19.2087 6.86193C19.8997 7.04404 20.4464 7.58023 20.632 8.25806C20.9724 9.49232 20.9827 12.0519 20.9827 12.0519C20.9827 12.0519 20.9827 14.6216 20.6423 15.8457C20.4567 16.5235 19.91 17.0597 19.219 17.2418C17.971 17.5757 12.9481 17.5757 12.9481 17.5757C12.9481 17.5757 7.92513 17.5757 6.67714 17.2418C5.9861 17.0597 5.43945 16.5235 5.2538 15.8457C4.91344 14.6115 4.91344 12.0519 4.91344 12.0519C4.91344 12.0519 4.91344 9.49232 5.24349 8.26818C5.42914 7.59035 5.97578 7.05415 6.66682 6.87205C7.91482 6.53819 12.9378 6.52808 12.9378 6.52808C12.9378 6.52808 17.9607 6.52808 19.2087 6.86193ZM15.5059 12.0519L11.3391 14.4193V9.68457L15.5059 12.0519Z" fill="#FF0000"/>
</svg>
